<?xml version="1.0" standalone="no"?>
<!DOCTYPE svg PUBLIC "-//W3C//DTD SVG 20010904//EN"
 "http://www.w3.org/TR/2001/REC-SVG-20010904/DTD/svg10.dtd">
<svg version="1.0" xmlns="http://www.w3.org/2000/svg"
 width="300.000000pt" height="300.000000pt" viewBox="0 0 300.000000 300.000000"
 preserveAspectRatio="xMidYMid meet">
<metadata>
Created by potrace 1.10, written by Peter Selinger 2001-2011
</metadata>
<g transform="translate(0.000000,300.000000) scale(0.100000,-0.100000)"
fill="#000000" stroke="none">
<path d="M522 2970 l-22 -21 0 -1444 c0 -1428 0 -1445 20 -1465 19 -19 35 -20
785 -20 888 0 805 -11 805 108 0 94 10 102 122 102 71 0 90 3 112 21 24 19 26
27 26 89 0 78 13 100 60 100 17 0 38 9 50 22 18 20 20 35 20 189 0 187 -6 206
-67 213 -53 6 -63 20 -63 96 0 104 -13 115 -136 116 -118 2 -124 7 -124 106 0
113 14 108 -329 108 -339 0 -321 -6 -321 112 0 73 -14 98 -55 98 -12 0 -33 8
-45 18 -19 16 -22 28 -22 92 0 119 -51 110 588 110 l543 0 15 22 c13 18 16 54
16 188 0 153 -2 168 -20 188 l-21 22 -543 0 c-628 0 -571 11 -578 -109 -5 -95
-13 -101 -133 -101 -116 0 -125 -8 -125 -104 0 -60 -3 -70 -27 -94 l-28 -27
-5 628 c-5 608 -6 629 -24 643 -16 11 -65 14 -236 14 -204 0 -217 -1 -238 -20z
m446 -32 c9 -9 12 -158 12 -610 l0 -599 25 -25 c24 -23 26 -24 55 -9 39 20 50
42 56 117 3 34 8 65 10 68 3 3 46 7 96 11 86 5 92 7 119 37 23 25 29 42 29 77
0 24 4 55 10 69 l10 26 524 0 c509 0 526 -1 536 -19 13 -25 13 -291 0 -311 -8
-13 -79 -15 -527 -16 -285 -1 -529 -2 -541 -3 -13 0 -37 -15 -53 -32 -27 -29
-29 -37 -29 -108 0 -91 13 -114 76 -141 24 -11 45 -25 45 -32 1 -7 3 -32 4
-55 4 -65 13 -86 43 -108 25 -19 47 -20 304 -25 165 -3 281 -9 286 -15 6 -5
12 -39 14 -74 4 -57 8 -67 36 -92 30 -27 39 -29 111 -29 98 0 111 -10 111 -84
0 -62 21 -96 80 -126 21 -10 40 -26 44 -35 3 -9 6 -78 6 -154 0 -142 -5 -161
-43 -161 -10 0 -34 -15 -53 -34 -30 -30 -34 -40 -34 -89 0 -78 -12 -87 -111
-87 -73 0 -81 -2 -111 -29 -29 -25 -32 -35 -36 -94 -2 -37 -10 -71 -17 -77
-18 -15 -1483 -14 -1501 1 -19 16 -21 2848 -2 2867 17 17 399 17 416 0z"/>
<path d="M1014 1312 c-32 -21 -34 -53 -34 -454 l0 -403 26 -28 25 -27 520 0
520 1 37 34 c37 33 37 34 37 114 0 74 -2 82 -29 110 -15 16 -40 32 -54 36 -36
9 -42 21 -42 84 0 47 -4 57 -34 87 -25 25 -43 34 -68 34 -18 1 -144 2 -280 3
-135 1 -250 5 -254 9 -4 4 -9 31 -11 60 -9 114 -36 138 -155 143 -44 2 -85 8
-90 13 -6 6 -13 39 -15 74 -3 55 -7 67 -33 91 -31 28 -47 32 -66 19z m46 -42
c16 -16 20 -33 20 -93 0 -43 5 -78 12 -85 8 -8 46 -12 105 -12 86 0 96 -2 118
-25 22 -21 25 -33 25 -93 0 -47 5 -73 14 -81 9 -8 105 -12 306 -14 339 -2 320
4 320 -106 0 -74 16 -101 62 -101 49 0 68 -30 68 -110 0 -120 49 -110 -565
-110 l-525 0 0 425 c0 277 3 425 10 425 6 0 19 -9 30 -20z"/>
</g>
</svg>
